<svg xmlns="http://www.w3.org/2000/svg" xmlns:xlink="http://www.w3.org/1999/xlink" width="2323.866" height="1469.352" viewBox="0 0 2323.866 1469.352">
  <defs>
    <filter id="Rectangle_149" x="561.792" y="443.457" width="313.571" height="313.571" filterUnits="userSpaceOnUse">
      <feOffset dy="3" input="SourceAlpha"/>
      <feGaussianBlur stdDeviation="3" result="blur"/>
      <feFlood flood-opacity="0.161"/>
      <feComposite operator="in" in2="blur"/>
      <feComposite in="SourceGraphic"/>
    </filter>
    <filter id="Rectangle_148" x="592.197" y="353.573" width="283.165" height="283.165" filterUnits="userSpaceOnUse">
      <feOffset dy="3" input="SourceAlpha"/>
      <feGaussianBlur stdDeviation="3" result="blur-2"/>
      <feFlood flood-opacity="0.161"/>
      <feComposite operator="in" in2="blur-2"/>
      <feComposite in="SourceGraphic"/>
    </filter>
    <filter id="Rectangle_129" x="1747.527" y="847.033" width="346.805" height="346.805" filterUnits="userSpaceOnUse">
      <feOffset dy="3" input="SourceAlpha"/>
      <feGaussianBlur stdDeviation="3" result="blur-3"/>
      <feFlood flood-opacity="0.161"/>
      <feComposite operator="in" in2="blur-3"/>
      <feComposite in="SourceGraphic"/>
    </filter>
    <filter id="Rectangle_133" x="807.822" y="1071.818" width="346.805" height="346.805" filterUnits="userSpaceOnUse">
      <feOffset dy="3" input="SourceAlpha"/>
      <feGaussianBlur stdDeviation="3" result="blur-4"/>
      <feFlood flood-opacity="0.161"/>
      <feComposite operator="in" in2="blur-4"/>
      <feComposite in="SourceGraphic"/>
    </filter>
    <filter id="Rectangle_130" x="54.625" y="289.933" width="346.805" height="346.805" filterUnits="userSpaceOnUse">
      <feOffset dy="3" input="SourceAlpha"/>
      <feGaussianBlur stdDeviation="3" result="blur-5"/>
      <feFlood flood-opacity="0.161"/>
      <feComposite operator="in" in2="blur-5"/>
      <feComposite in="SourceGraphic"/>
    </filter>
    <filter id="Rectangle_128" x="1959.225" y="766.063" width="313.571" height="313.571" filterUnits="userSpaceOnUse">
      <feOffset dy="3" input="SourceAlpha"/>
      <feGaussianBlur stdDeviation="3" result="blur-6"/>
      <feFlood flood-opacity="0.161"/>
      <feComposite operator="in" in2="blur-6"/>
      <feComposite in="SourceGraphic"/>
    </filter>
    <filter id="Rectangle_134" x="857.362" y="940.65" width="313.571" height="313.571" filterUnits="userSpaceOnUse">
      <feOffset dy="3" input="SourceAlpha"/>
      <feGaussianBlur stdDeviation="3" result="blur-7"/>
      <feFlood flood-opacity="0.161"/>
      <feComposite operator="in" in2="blur-7"/>
      <feComposite in="SourceGraphic"/>
    </filter>
    <filter id="Rectangle_143" x="726.295" y="621.354" width="313.571" height="313.571" filterUnits="userSpaceOnUse">
      <feOffset dy="3" input="SourceAlpha"/>
      <feGaussianBlur stdDeviation="3" result="blur-8"/>
      <feFlood flood-opacity="0.161"/>
      <feComposite operator="in" in2="blur-8"/>
      <feComposite in="SourceGraphic"/>
    </filter>
    <filter id="Rectangle_144" x="2010.295" y="292.045" width="313.571" height="313.571" filterUnits="userSpaceOnUse">
      <feOffset dy="3" input="SourceAlpha"/>
      <feGaussianBlur stdDeviation="3" result="blur-9"/>
      <feFlood flood-opacity="0.161"/>
      <feComposite operator="in" in2="blur-9"/>
      <feComposite in="SourceGraphic"/>
    </filter>
    <filter id="Rectangle_137" x="2.59" y="1048.402" width="313.571" height="313.571" filterUnits="userSpaceOnUse">
      <feOffset dy="3" input="SourceAlpha"/>
      <feGaussianBlur stdDeviation="3" result="blur-10"/>
      <feFlood flood-opacity="0.161"/>
      <feComposite operator="in" in2="blur-10"/>
      <feComposite in="SourceGraphic"/>
    </filter>
    <filter id="Rectangle_131" x="282.322" y="173.385" width="313.571" height="313.571" filterUnits="userSpaceOnUse">
      <feOffset dy="3" input="SourceAlpha"/>
      <feGaussianBlur stdDeviation="3" result="blur-11"/>
      <feFlood flood-opacity="0.161"/>
      <feComposite operator="in" in2="blur-11"/>
      <feComposite in="SourceGraphic"/>
    </filter>
    <filter id="Rectangle_147" x="1428.703" y="0" width="313.571" height="313.571" filterUnits="userSpaceOnUse">
      <feOffset dy="3" input="SourceAlpha"/>
      <feGaussianBlur stdDeviation="3" result="blur-12"/>
      <feFlood flood-opacity="0.161"/>
      <feComposite operator="in" in2="blur-12"/>
      <feComposite in="SourceGraphic"/>
    </filter>
    <filter id="Rectangle_127" x="1956.634" y="902.122" width="283.165" height="283.165" filterUnits="userSpaceOnUse">
      <feOffset dy="3" input="SourceAlpha"/>
      <feGaussianBlur stdDeviation="3" result="blur-13"/>
      <feFlood flood-opacity="0.161"/>
      <feComposite operator="in" in2="blur-13"/>
      <feComposite in="SourceGraphic"/>
    </filter>
    <filter id="Rectangle_135" x="969.634" y="1103.638" width="283.165" height="283.165" filterUnits="userSpaceOnUse">
      <feOffset dy="3" input="SourceAlpha"/>
      <feGaussianBlur stdDeviation="3" result="blur-14"/>
      <feFlood flood-opacity="0.161"/>
      <feComposite operator="in" in2="blur-14"/>
      <feComposite in="SourceGraphic"/>
    </filter>
    <filter id="Rectangle_142" x="561.893" y="698.682" width="283.165" height="283.165" filterUnits="userSpaceOnUse">
      <feOffset dy="3" input="SourceAlpha"/>
      <feGaussianBlur stdDeviation="3" result="blur-15"/>
      <feFlood flood-opacity="0.161"/>
      <feComposite operator="in" in2="blur-15"/>
      <feComposite in="SourceGraphic"/>
    </filter>
    <filter id="Rectangle_145" x="1847.768" y="381.443" width="283.165" height="283.165" filterUnits="userSpaceOnUse">
      <feOffset dy="3" input="SourceAlpha"/>
      <feGaussianBlur stdDeviation="3" result="blur-16"/>
      <feFlood flood-opacity="0.161"/>
      <feComposite operator="in" in2="blur-16"/>
      <feComposite in="SourceGraphic"/>
    </filter>
    <filter id="Rectangle_138" x="0" y="1186.187" width="283.165" height="283.165" filterUnits="userSpaceOnUse">
      <feOffset dy="3" input="SourceAlpha"/>
      <feGaussianBlur stdDeviation="3" result="blur-17"/>
      <feFlood flood-opacity="0.161"/>
      <feComposite operator="in" in2="blur-17"/>
      <feComposite in="SourceGraphic"/>
    </filter>
    <filter id="Rectangle_141" x="1443.906" y="116.278" width="283.165" height="283.165" filterUnits="userSpaceOnUse">
      <feOffset dy="3" input="SourceAlpha"/>
      <feGaussianBlur stdDeviation="3" result="blur-18"/>
      <feFlood flood-opacity="0.161"/>
      <feComposite operator="in" in2="blur-18"/>
      <feComposite in="SourceGraphic"/>
    </filter>
    <filter id="Rectangle_132" x="263.732" y="295.571" width="283.165" height="283.165" filterUnits="userSpaceOnUse">
      <feOffset dy="3" input="SourceAlpha"/>
      <feGaussianBlur stdDeviation="3" result="blur-19"/>
      <feFlood flood-opacity="0.161"/>
      <feComposite operator="in" in2="blur-19"/>
      <feComposite in="SourceGraphic"/>
    </filter>
    <filter id="Rectangle_139" x="1234.799" y="61.042" width="346.805" height="346.805" filterUnits="userSpaceOnUse">
      <feOffset dy="3" input="SourceAlpha"/>
      <feGaussianBlur stdDeviation="3" result="blur-20"/>
      <feFlood flood-opacity="0.161"/>
      <feComposite operator="in" in2="blur-20"/>
      <feComposite in="SourceGraphic"/>
    </filter>
    <filter id="Rectangle_136" x="561.893" y="574.625" width="346.805" height="346.805" filterUnits="userSpaceOnUse">
      <feOffset dy="3" input="SourceAlpha"/>
      <feGaussianBlur stdDeviation="3" result="blur-21"/>
      <feFlood flood-opacity="0.161"/>
      <feComposite operator="in" in2="blur-21"/>
      <feComposite in="SourceGraphic"/>
    </filter>
    <filter id="Rectangle_146" x="1845.893" y="225.444" width="346.805" height="346.805" filterUnits="userSpaceOnUse">
      <feOffset dy="3" input="SourceAlpha"/>
      <feGaussianBlur stdDeviation="3" result="blur-22"/>
      <feFlood flood-opacity="0.161"/>
      <feComposite operator="in" in2="blur-22"/>
      <feComposite in="SourceGraphic"/>
    </filter>
  </defs>
  <g id="pattern" transform="translate(167.161 -880.372)" opacity="0.27">
    <g transform="matrix(1, 0, 0, 1, -167.16, 880.37)" filter="url(#Rectangle_149)">
      <rect id="Rectangle_149-2" data-name="Rectangle 149" width="383" height="35" rx="17.5" transform="translate(866.36 474.21) rotate(135)" fill="#6f4ab0" opacity="0.41"/>
    </g>
    <g transform="matrix(1, 0, 0, 1, -167.16, 880.37)" filter="url(#Rectangle_148)">
      <rect id="Rectangle_148-2" data-name="Rectangle 148" width="340" height="35" rx="17.5" transform="translate(866.36 384.32) rotate(135)" fill="#c65faa" opacity="0.41"/>
    </g>
    <g transform="matrix(1, 0, 0, 1, -167.16, 880.37)" filter="url(#Rectangle_129)">
      <g id="Rectangle_129-2" data-name="Rectangle 129" transform="translate(2085.33 877.78) rotate(135)" fill="#973b6d" stroke="#707070" stroke-width="1" opacity="0.41">
        <rect width="430" height="35" rx="17.5" stroke="none"/>
        <rect x="0.5" y="0.5" width="429" height="34" rx="17" fill="none"/>
      </g>
    </g>
    <g transform="matrix(1, 0, 0, 1, -167.16, 880.37)" filter="url(#Rectangle_133)">
      <g id="Rectangle_133-2" data-name="Rectangle 133" transform="translate(1145.63 1102.57) rotate(135)" fill="#973b6d" stroke="#707070" stroke-width="1" opacity="0.41">
        <rect width="430" height="35" rx="17.5" stroke="none"/>
        <rect x="0.5" y="0.5" width="429" height="34" rx="17" fill="none"/>
      </g>
    </g>
    <g transform="matrix(1, 0, 0, 1, -167.16, 880.37)" filter="url(#Rectangle_130)">
      <g id="Rectangle_130-2" data-name="Rectangle 130" transform="translate(392.43 320.68) rotate(135)" fill="#973b6d" stroke="#707070" stroke-width="1" opacity="0.41">
        <rect width="430" height="35" rx="17.5" stroke="none"/>
        <rect x="0.5" y="0.5" width="429" height="34" rx="17" fill="none"/>
      </g>
    </g>
    <g transform="matrix(1, 0, 0, 1, -167.16, 880.37)" filter="url(#Rectangle_128)">
      <rect id="Rectangle_128-2" data-name="Rectangle 128" width="383" height="35" rx="17.5" transform="translate(2263.8 796.81) rotate(135)" fill="#6f4ab0" opacity="0.41"/>
    </g>
    <g transform="matrix(1, 0, 0, 1, -167.16, 880.37)" filter="url(#Rectangle_134)">
      <rect id="Rectangle_134-2" data-name="Rectangle 134" width="383" height="35" rx="17.5" transform="translate(1161.93 971.4) rotate(135)" fill="#6f4ab0" opacity="0.41"/>
    </g>
    <g transform="matrix(1, 0, 0, 1, -167.16, 880.37)" filter="url(#Rectangle_143)">
      <rect id="Rectangle_143-2" data-name="Rectangle 143" width="383" height="35" rx="17.5" transform="translate(1030.87 652.1) rotate(135)" fill="#6f4ab0" opacity="0.41"/>
    </g>
    <g transform="matrix(1, 0, 0, 1, -167.16, 880.37)" filter="url(#Rectangle_144)">
      <rect id="Rectangle_144-2" data-name="Rectangle 144" width="383" height="35" rx="17.5" transform="translate(2314.87 322.79) rotate(135)" fill="#6f4ab0" opacity="0.41"/>
    </g>
    <g transform="matrix(1, 0, 0, 1, -167.16, 880.37)" filter="url(#Rectangle_137)">
      <rect id="Rectangle_137-2" data-name="Rectangle 137" width="383" height="35" rx="17.5" transform="translate(307.16 1079.15) rotate(135)" fill="#6f4ab0" opacity="0.41"/>
    </g>
    <g transform="matrix(1, 0, 0, 1, -167.16, 880.37)" filter="url(#Rectangle_131)">
      <rect id="Rectangle_131-2" data-name="Rectangle 131" width="383" height="35" rx="17.5" transform="translate(586.89 204.13) rotate(135)" fill="#6f4ab0" opacity="0.41"/>
    </g>
    <g transform="matrix(1, 0, 0, 1, -167.16, 880.37)" filter="url(#Rectangle_147)">
      <rect id="Rectangle_147-2" data-name="Rectangle 147" width="383" height="35" rx="17.5" transform="translate(1733.27 30.75) rotate(135)" fill="#6f4ab0" opacity="0.41"/>
    </g>
    <g transform="matrix(1, 0, 0, 1, -167.16, 880.37)" filter="url(#Rectangle_127)">
      <rect id="Rectangle_127-2" data-name="Rectangle 127" width="340" height="35" rx="17.5" transform="translate(2230.8 932.87) rotate(135)" fill="#c65faa" opacity="0.41"/>
    </g>
    <g transform="matrix(1, 0, 0, 1, -167.16, 880.37)" filter="url(#Rectangle_135)">
      <rect id="Rectangle_135-2" data-name="Rectangle 135" width="340" height="35" rx="17.5" transform="translate(1243.8 1134.39) rotate(135)" fill="#c65faa" opacity="0.41"/>
    </g>
    <g transform="matrix(1, 0, 0, 1, -167.16, 880.37)" filter="url(#Rectangle_142)">
      <rect id="Rectangle_142-2" data-name="Rectangle 142" width="340" height="35" rx="17.5" transform="translate(836.06 729.43) rotate(135)" fill="#c65faa" opacity="0.41"/>
    </g>
    <g transform="matrix(1, 0, 0, 1, -167.16, 880.37)" filter="url(#Rectangle_145)">
      <rect id="Rectangle_145-2" data-name="Rectangle 145" width="340" height="35" rx="17.5" transform="translate(2121.93 412.19) rotate(135)" fill="#c65faa" opacity="0.41"/>
    </g>
    <g transform="matrix(1, 0, 0, 1, -167.16, 880.37)" filter="url(#Rectangle_138)">
      <rect id="Rectangle_138-2" data-name="Rectangle 138" width="340" height="35" rx="17.5" transform="translate(274.17 1216.94) rotate(135)" fill="#c65faa" opacity="0.41"/>
    </g>
    <g transform="matrix(1, 0, 0, 1, -167.16, 880.37)" filter="url(#Rectangle_141)">
      <rect id="Rectangle_141-2" data-name="Rectangle 141" width="340" height="35" rx="17.5" transform="translate(1718.07 147.03) rotate(135)" fill="#c65faa" opacity="0.41"/>
    </g>
    <g transform="matrix(1, 0, 0, 1, -167.16, 880.37)" filter="url(#Rectangle_132)">
      <rect id="Rectangle_132-2" data-name="Rectangle 132" width="340" height="35" rx="17.5" transform="translate(537.9 326.32) rotate(135)" fill="#c65faa" opacity="0.41"/>
    </g>
    <g transform="matrix(1, 0, 0, 1, -167.16, 880.37)" filter="url(#Rectangle_139)">
      <g id="Rectangle_139-2" data-name="Rectangle 139" transform="translate(1572.6 91.79) rotate(135)" fill="#973b6d" stroke="#707070" stroke-width="1" opacity="0.41">
        <rect width="430" height="35" rx="17.5" stroke="none"/>
        <rect x="0.5" y="0.5" width="429" height="34" rx="17" fill="none"/>
      </g>
    </g>
    <g transform="matrix(1, 0, 0, 1, -167.16, 880.37)" filter="url(#Rectangle_136)">
      <g id="Rectangle_136-2" data-name="Rectangle 136" transform="translate(899.7 605.37) rotate(135)" fill="#973b6d" stroke="#707070" stroke-width="1" opacity="0.41">
        <rect width="430" height="35" rx="17.5" stroke="none"/>
        <rect x="0.5" y="0.5" width="429" height="34" rx="17" fill="none"/>
      </g>
    </g>
    <g transform="matrix(1, 0, 0, 1, -167.16, 880.37)" filter="url(#Rectangle_146)">
      <g id="Rectangle_146-2" data-name="Rectangle 146" transform="translate(2183.7 256.19) rotate(135)" fill="#973b6d" stroke="#707070" stroke-width="1" opacity="0.41">
        <rect width="430" height="35" rx="17.5" stroke="none"/>
        <rect x="0.5" y="0.5" width="429" height="34" rx="17" fill="none"/>
      </g>
    </g>
  </g>
</svg>
