<svg xmlns="http://www.w3.org/2000/svg" width="1957.107" height="1295.431" viewBox="0 0 1957.107 1295.431">
  <g id="Group_778" data-name="Group 778" transform="translate(18.553 -5477.428)">
    <rect id="Rectangle_1041" data-name="Rectangle 1041" width="60" height="60" transform="translate(461.781 6399.34) rotate(17)" fill="#c65faa"/>
    <rect id="Rectangle_1061" data-name="Rectangle 1061" width="60" height="60" transform="translate(372.781 6553.603) rotate(14)" fill="#c65faa"/>
    <rect id="Rectangle_1050" data-name="Rectangle 1050" width="40" height="40" transform="translate(530.855 6374.366) rotate(17)" fill="#6f4ab0"/>
    <rect id="Rectangle_1062" data-name="Rectangle 1062" width="40" height="40" transform="translate(437.984 6511.17) rotate(14)" fill="#6f4ab0"/>
    <rect id="Rectangle_1044" data-name="Rectangle 1044" width="60" height="60" transform="translate(476.796 5708.056) rotate(-16)" fill="#c65faa"/>
    <rect id="Rectangle_1046" data-name="Rectangle 1046" width="60" height="60" transform="translate(1433.345 5645.871) rotate(14)" fill="#c65faa"/>
    <rect id="Rectangle_1042" data-name="Rectangle 1042" width="60" height="60" transform="translate(14.381 6648.596) rotate(-16)" fill="#c65faa"/>
    <rect id="Rectangle_1047" data-name="Rectangle 1047" width="60" height="60" transform="translate(-4.038 5954.068) rotate(14)" fill="#c65faa"/>
    <rect id="Rectangle_1063" data-name="Rectangle 1063" width="60" height="60" transform="translate(1249.054 5496.962) rotate(109)" fill="#c65faa"/>
    <rect id="Rectangle_1048" data-name="Rectangle 1048" width="60" height="60" transform="translate(958.962 6700.126) rotate(14)" fill="#c65faa"/>
    <rect id="Rectangle_1049" data-name="Rectangle 1049" width="60" height="60" transform="translate(1516.546 6550.823) rotate(110)" fill="#c65faa"/>
    <rect id="Rectangle_1051" data-name="Rectangle 1051" width="40" height="40" transform="translate(512.048 5638.707) rotate(-16)" fill="#6f4ab0"/>
    <rect id="Rectangle_1053" data-name="Rectangle 1053" width="40" height="40" transform="translate(1498.548 5603.437) rotate(14)" fill="#6f4ab0"/>
    <rect id="Rectangle_1054" data-name="Rectangle 1054" width="40" height="40" transform="translate(61.165 5911.635) rotate(14)" fill="#6f4ab0"/>
    <rect id="Rectangle_1064" data-name="Rectangle 1064" width="40" height="40" transform="translate(1285.642 5565.616) rotate(109)" fill="#6f4ab0"/>
    <rect id="Rectangle_1055" data-name="Rectangle 1055" width="40" height="40" transform="translate(1024.166 6657.692) rotate(14)" fill="#6f4ab0"/>
    <rect id="Rectangle_1056" data-name="Rectangle 1056" width="40" height="40" transform="translate(1551.931 6620.105) rotate(110)" fill="#6f4ab0"/>
    <rect id="Rectangle_1043" data-name="Rectangle 1043" width="60" height="60" transform="translate(1827.232 5972.339) rotate(-16)" fill="#6f4ab0"/>
    <rect id="Rectangle_1057" data-name="Rectangle 1057" width="60" height="60" transform="translate(1864.339 5876.838) rotate(-16)" fill="#c65faa"/>
  </g>
</svg>
